<?xml version="1.0" standalone="no"?>
<!DOCTYPE svg PUBLIC "-//W3C//DTD SVG 20010904//EN"
 "http://www.w3.org/TR/2001/REC-SVG-20010904/DTD/svg10.dtd">
<svg version="1.0" xmlns="http://www.w3.org/2000/svg"
 width="418.000000pt" height="418.000000pt" viewBox="0 0 418.000000 418.000000"
 preserveAspectRatio="xMidYMid meet">
<metadata>
Created by potrace 1.11, written by Peter Selinger 2001-2013
</metadata>
<g transform="translate(0.000000,418.000000) scale(0.100000,-0.100000)"
fill="#000000" stroke="none">
<path d="M200 2129 l0 -1459 375 0 375 0 0 1459 0 1459 -375 0 -375 0 0 -1459z"/>
<path d="M1310 2129 l0 -1459 340 0 c317 0 340 1 340 18 1 9 1 293 1 630 0
336 2 612 5 612 3 0 144 -288 144 -295 0 -2 29 -63 63 -137 35 -73 78 -162 95
-198 16 -36 58 -123 92 -195 34 -71 66 -140 70 -151 8 -21 14 -22 177 -21
l168 0 25 56 c13 31 41 92 61 136 20 44 47 103 59 130 26 59 15 33 185 409 74
164 135 304 135 309 0 6 3 7 7 4 3 -4 7 -296 9 -649 2 -354 3 -646 4 -650 0
-5 153 -8 340 -8 l340 0 0 33 c1 51 -1 1527 -3 2237 l-2 645 -301 1 c-166 1
-306 -1 -311 -5 -9 -6 -20 -29 -78 -156 -32 -72 -53 -118 -95 -210 -36 -78
-251 -554 -282 -625 -35 -79 -65 -143 -102 -222 -20 -42 -36 -79 -36 -81 0 -5
-79 -177 -103 -225 -12 -25 -16 -18 -132 238 -24 52 -73 157 -109 234 -36 76
-66 139 -66 141 0 1 -22 49 -49 106 -26 57 -76 165 -111 239 -34 74 -78 169
-97 210 -20 41 -59 127 -89 190 -29 63 -59 127 -66 141 l-12 27 -308 -1 -308
0 0 -1458z"/>
</g>
</svg>
